# xmcd
#
# Track frame offsets:
#	150
#	12669
#	33155
#	50893
#	65276
#	76893
#	98177
#	112132
#	128466
#	151287
#	165564
#	180243
#	196231
#	216902
#	238046
#	258440
#	275917
#	287895
#	301540
#	317586
#	330846
#
# Disc length: 4686 seconds
#
# Revision: 0
# Processed by: cddbd v1.5.2PL0 Copyright (c) Steve Scherf et al.
# Submitted via: SynApp - FreeCDDB Version: 2.5
#
DISCID=1e124c15
DTITLE=Mix 2 - Mix 2
DYEAR=1980
DGENRE=Vocal
TTITLE0=Shakin Stevens    -    You drive my crazy
TTITLE1=Zucchero  - Senza Una Donna
TTITLE2=Bachman Turner Overdrive -    You Ain't Seen Nothing Yet
TTITLE3=Sweet  -    CoCo
TTITLE4=Norah Jones    -    Turn me on
TTITLE5=U2  -    Sunday bloody Sunday
TTITLE6=Status Quo  -    Fun Fun Fun
TTITLE7=Uriah Heep    -     Free me
TTITLE8=Deep Purple     -    Why Didn't Rosemary
TTITLE9=Jimmy Cliff    -     Bright Sunshiny Day
TTITLE10=Bellamy Brothers    -    Let your Love Flow
TTITLE11=Trio    -    Herz ist Trumpf
TTITLE12=Rolling Stones   -    Angie
TTITLE13=Chris Norman -    Breathless
TTITLE14=Tracy Chapman    -    Give Me One Reason
TTITLE15=Hot Chocolate    -    Emma
TTITLE16=Sailor  -     A Glass Of Champagne
TTITLE17=Gunter Gabriel  -     Hey Boss...Ich brauch mehr Geld
TTITLE18=Mungo Jerry -    In The Summertime
TTITLE19=Eagles    -    Tequila Sunrise
TTITLE20=Lionel Richie and The Commodors  -    Tender Heart
EXTD=
EXTT0=
EXTT1=
EXTT2=
EXTT3=
EXTT4=
EXTT5=
EXTT6=
EXTT7=
EXTT8=
EXTT9=
EXTT10=
EXTT11=
EXTT12=
EXTT13=
EXTT14=
EXTT15=
EXTT16=
EXTT17=
EXTT18=
EXTT19=
EXTT20=
PLAYORDER=
